<svg width="1920" height="1080" viewBox="0 0 1920 1080" xmlns="http://www.w3.org/2000/svg">
  <defs>
    <!-- Parchment texture filter -->
    <filter id="parchment-texture" x="0%" y="0%" width="100%" height="100%">
      <feTurbulence type="fractalNoise" baseFrequency="0.02" numOctaves="5" seed="42" result="noise"/>
      <feDiffuseLighting in="noise" lighting-color="#d4c4a8" surfaceScale="2" result="diffuse">
        <feDistantLight azimuth="45" elevation="60"/>
      </feDiffuseLighting>
      <feComposite in="diffuse" in2="SourceGraphic" operator="multiply"/>
    </filter>
    
    <!-- Vignette gradient -->
    <radialGradient id="vignette" cx="50%" cy="50%" r="70%">
      <stop offset="0%" stop-color="rgba(0,0,0,0)" />
      <stop offset="100%" stop-color="rgba(0,0,0,0.3)" />
    </radialGradient>
  </defs>
  
  <!-- Base parchment color -->
  <rect width="1920" height="1080" fill="#f5f0e8" />
  
  <!-- Apply parchment texture -->
  <rect width="1920" height="1080" fill="#e8dcc0" filter="url(#parchment-texture)" opacity="0.6" />
  
  <!-- Topographical contour lines -->
  <g stroke="#8b7355" stroke-width="0.8" fill="none" opacity="0.4">
    <path d="M -100 400 C 300 300, 600 500, 1000 400 S 1400 200, 1800 400 S 2200 600, 2020 500" />
    <path d="M -100 500 C 400 400, 700 600, 1100 500 S 1500 300, 1900 500 S 2300 700, 2020 600" />
    <path d="M -100 600 C 500 500, 800 700, 1200 600 S 1600 400, 2000 600 S 2400 800, 2020 700" />
    <path d="M -100 700 C 600 600, 900 800, 1300 700 S 1700 500, 2100 700 S 2500 900, 2020 800" />
  </g>
  
  <!-- Apply vignette effect -->
  <rect width="1920" height="1080" fill="url(#vignette)" />
</svg>
